<svg width="24" height="24" viewBox="0 0 24 24" fill="none" xmlns="http://www.w3.org/2000/svg">
<g clip-path="url(#clip0_1202_1443)">
<rect width="24" height="24" rx="12" fill="#FF4E4E"></rect>
<path d="M-5.40527 0L42.5947 0L42.5947 24L-5.40527 24L-5.40527 0Z" fill="#FF0000"></path>
<path d="M-5.40527 0L42.5947 0V16L-5.40527 16L-5.40527 0Z" fill="#0000FF"></path>
<path d="M-5.40527 0L42.5947 0V8L-5.40527 8L-5.40527 0Z" fill="white"></path>
<path d="M3.68478 4.612C5.53878 3.796 7.65078 3.796 9.50478 4.612C9.80878 8.91 8.83878 11.346 6.59478 11.92C4.35078 11.346 3.38078 8.91 3.68478 4.612Z" fill="#0000FF"></path>
<path d="M6.59457 5.38599L6.68257 5.58599L6.90057 5.56199L6.77257 5.73799L6.90057 5.91399L6.68257 5.88999L6.59457 6.08999L6.50657 5.88999L6.28857 5.91399L6.41657 5.73799L6.28857 5.56199L6.50657 5.58599" fill="#FFFF00"></path>
<path d="M5.7728 4.29004L5.8608 4.49004L6.0788 4.46604L5.9508 4.64204L6.0788 4.81804L5.8608 4.79404L5.7728 4.99404L5.6848 4.79404L5.4668 4.81804L5.5948 4.64204L5.4668 4.46604L5.6848 4.49004" fill="#FFFF00"></path>
<path d="M7.41684 4.29004L7.50484 4.49004L7.72284 4.46604L7.59484 4.64204L7.72284 4.81804L7.50484 4.79404L7.41684 4.99404L7.32884 4.79404L7.11084 4.81804L7.23884 4.64204L7.11084 4.46604L7.32884 4.49004" fill="#FFFF00"></path>
<path d="M6.59458 6.52002L7.29858 7.93002L7.76858 7.30402L8.94258 8.87002C8.94258 8.94202 8.93258 9.01602 8.91258 9.08602C8.58658 10.23 7.72058 11.14 6.59458 11.526C5.46858 11.142 4.60258 10.23 4.27658 9.08602C4.25658 9.01602 4.24658 8.94402 4.24658 8.87002L5.42058 7.30402L5.89058 7.93002L6.59458 6.52002Z" fill="white"></path>
<path d="M4.27658 9.08398C4.39458 9.49998 4.82858 9.73998 5.24458 9.62198C5.30658 9.60398 5.36458 9.57999 5.42058 9.54799C5.66258 9.40799 5.96058 9.40799 6.20258 9.54799C6.44458 9.68799 6.74258 9.68799 6.98458 9.54799C7.22658 9.40799 7.52458 9.40799 7.76658 9.54799C8.14058 9.76399 8.62058 9.63599 8.83658 9.26199C8.86858 9.20599 8.89458 9.14798 8.91058 9.08598L8.94058 9.09598V9.66998C8.80258 9.66998 8.66858 9.70598 8.54858 9.77398C8.30658 9.91398 8.00858 9.91398 7.76658 9.77398C7.52458 9.63398 7.22658 9.63398 6.98458 9.77398C6.74258 9.91398 6.44458 9.91398 6.20258 9.77398C5.96058 9.63398 5.66258 9.63398 5.42058 9.77398C5.17858 9.91398 4.88058 9.91398 4.63858 9.77398C4.51858 9.70598 4.38458 9.66998 4.24658 9.66998V9.09598" fill="#0000FF"></path>
<path d="M4.27658 9.53601C4.39458 9.95201 4.82858 10.192 5.24458 10.074C5.30658 10.056 5.36458 10.032 5.42058 10C5.66258 9.86001 5.96058 9.86001 6.20258 10C6.44458 10.14 6.74258 10.14 6.98458 10C7.22658 9.86001 7.52458 9.86001 7.76658 10C8.14058 10.216 8.62058 10.088 8.83658 9.71401C8.86858 9.65801 8.89458 9.60001 8.91058 9.53801L8.94058 9.54801V10.122C8.80258 10.122 8.66858 10.158 8.54858 10.226C8.30658 10.366 8.00858 10.366 7.76658 10.226C7.52458 10.086 7.22658 10.086 6.98458 10.226C6.74258 10.366 6.44458 10.366 6.20258 10.226C5.96058 10.086 5.66258 10.086 5.42058 10.226C5.17858 10.366 4.88058 10.366 4.63858 10.226C4.51858 10.158 4.38458 10.122 4.24658 10.122V9.54801" fill="#0000FF"></path>
<path d="M3.46289 4.71406C3.53689 4.67806 3.60889 4.64406 3.68489 4.61206L3.91689 8.32606C4.01689 9.91406 5.07889 11.2781 6.59489 11.7621C8.11089 11.2781 9.17289 9.91406 9.27289 8.32606L9.50489 4.61206C9.57889 4.64406 9.65289 4.67806 9.72689 4.71406L9.49889 8.34006C9.39289 10.0481 8.23289 11.5081 6.59489 11.9981C4.95689 11.5061 3.79689 10.0461 3.69089 8.34006L3.46289 4.71406Z" fill="#FF0000"></path>
</g>
<defs>
<clipPath id="clip0_1202_1443">
<rect width="24" height="24" rx="12" fill="white"></rect>
</clipPath>
</defs>
</svg>